<mxfile host="app.diagrams.net" modified="2024-02-01T03:53:54.526Z" agent="Mozilla/5.0 (Windows NT 10.0; Win64; x64) AppleWebKit/537.36 (KHTML, like Gecko) Chrome/120.0.0.0 Safari/537.36 OPR/106.0.0.0" version="22.1.21" etag="Pp3mYlirMYB4QDlgIJ0I" type="github">
  <diagram name="Page-1" id="SL2lBERJPsa4se48MM9Q">
    <mxGraphModel>
      <root>
        <mxCell id="0" />
        <mxCell id="1" parent="0" />
      </root>
    </mxGraphModel>
  </diagram>
</mxfile>
